<svg xmlns="http://www.w3.org/2000/svg" fill="none" viewBox="0 0 15 15" height="15" width="15"><g id="search-category"><path id="Union" fill="#ffffff" fill-rule="evenodd" d="M5.892857142857142 0H1.0714285714285714C0.4796946428571428 0 0 0.4796946428571428 0 1.0714285714285714v4.821428571428571c0 0.5917285714285714 0.4796946428571428 1.0714285714285714 1.0714285714285714 1.0714285714285714h4.364475c0.40054285714285714 -0.6070821428571428 0.9212999999999999 -1.1278392857142858 1.528382142857143 -1.528382142857143V1.0714285714285714c0 -0.5917339285714286 -0.4797 -1.0714285714285714 -1.0714285714285714 -1.0714285714285714ZM1.0714285714285714 8.035714285714285h3.8194285714285714c-0.21806785714285712 0.583575 -0.3372857142857143 1.2153642857142857 -0.3372857142857143 1.875 0 1.8362142857142856 0.9237857142857142 3.4565357142857143 2.3319428571428573 4.421785714285714 -0.15948214285714285 0.3915 -0.5438464285714285 0.6675 -0.9926571428571428 0.6675H1.0714285714285714c-0.5917339285714286 0 -1.0714285714285714 -0.4796785714285714 -1.0714285714285714 -1.0714285714285714V9.107142857142858c0 -0.5917285714285714 0.4796946428571428 -1.0714285714285714 1.0714285714285714 -1.0714285714285714Zm13.928571428571429 -2.142857142857143c0 0.44881071428571423 -0.27599999999999997 0.833175 -0.6675 0.9926571428571428C13.36725 5.477357142857143 11.746928571428572 4.553571428571429 9.910714285714285 4.553571428571429c-0.6596357142857142 0 -1.291425 0.11921785714285714 -1.875 0.3372857142857143V1.0714285714285714c0 -0.5917339285714286 0.4797 -1.0714285714285714 1.0714285714285714 -1.0714285714285714H13.928571428571429c0.59175 0 1.0714285714285714 0.4796946428571428 1.0714285714285714 1.0714285714285714v4.821428571428571ZM9.910714285714285 7.5C8.579314285714286 7.5 7.5 8.579314285714286 7.5 9.910714285714285c0 1.3313571428571427 1.0793142857142857 2.4107142857142856 2.4107142857142856 2.4107142857142856 1.3313571428571427 0 2.4107142857142856 -1.079357142857143 2.4107142857142856 -2.4107142857142856C12.321428571428571 8.579314285714286 11.242071428571428 7.5 9.910714285714285 7.5ZM5.892857142857142 9.910714285714285c0 -2.2190035714285714 1.7988535714285714 -4.017857142857142 4.017857142857142 -4.017857142857142C12.12975 5.892857142857142 13.928571428571429 7.691710714285715 13.928571428571429 9.910714285714285c0 0.8188928571428571 -0.24503571428571427 1.5805714285714285 -0.6656785714285713 2.2157142857142857l1.5017142857142856 1.5018214285714284c0.31382142857142853 0.31382142857142853 0.31382142857142853 0.8225357142857143 0 1.1363571428571428 -0.31382142857142853 0.31382142857142853 -0.8225357142857143 0.31382142857142853 -1.1363571428571428 0l-1.5018214285714284 -1.5017142857142856c-0.6351428571428571 0.42064285714285715 -1.3968214285714287 0.6656785714285713 -2.2157142857142857 0.6656785714285713 -2.2190035714285714 0 -4.017857142857142 -1.7988214285714286 -4.017857142857142 -4.017857142857142Z" clip-rule="evenodd" stroke-width="1.0714285714285714"></path></g></svg>