<svg xmlns="http://www.w3.org/2000/svg" fill="none" viewBox="0 0 15 15" height="15" width="15"><g id="heart--reward-social-rating-media-heart-it-like-favorite-love"><path id="Union" fill="#1ed760" fill-rule="evenodd" d="M4.311214285714285 1.1626285714285716c1.0505678571428572 0.076125 2.145257142857143 0.5882464285714286 3.193157142857143 1.6247142857142856 1.047632142857143 -1.0361785714285714 2.1413571428571427 -1.5473249999999998 3.19095 -1.621757142857143 1.1845714285714284 -0.08401071428571427 2.2317857142857145 0.39475714285714286 2.9895 1.150125 1.489607142857143 1.48515 1.9573928571428572 4.172528571428571 0.10896428571428571 6.021 -0.006214285714285714 0.006235714285714285 -0.012642857142857141 0.012321428571428572 -0.019178571428571427 0.018235714285714286L7.864007142857143 13.708821428571428c-0.20411785714285716 0.18482142857142855 -0.5151642857142857 0.18482142857142855 -0.7192821428571429 0L1.2341035714285713 8.354946428571429c-0.006535714285714286 -0.005914285714285714 -0.01292142857142857 -0.012 -0.019157142857142855 -0.018235714285714286 -1.8581035714285714 -1.8581035714285714 -1.3928121428571427 -4.545792857142858 0.10172142857142856 -6.029785714285714 0.759525 -0.7541785714285714 1.8088714285714285 -1.2302035714285715 2.9945464285714283 -1.1442964285714283Z" clip-rule="evenodd" stroke-width="1.0714285714285714"></path></g></svg>