<svg xmlns="http://www.w3.org/2000/svg" fill="none" viewBox="0 0 15 15" height="15" width="15"><g id="bullet-list--points-bullet-unordered-list-lists-bullets"><path id="Union" fill="#ffffff" fill-rule="evenodd" d="M2.142857142857143 2.6780464285714283c0 0.5917392857142857 -0.4797 1.0714285714285714 -1.0714285714285714 1.0714285714285714 -0.5917339285714286 0 -1.0714285714285714 -0.4796892857142857 -1.0714285714285714 -1.0714285714285714 0 -0.5917285714285714 0.4796946428571428 -1.0714285714285714 1.0714285714285714 -1.0714285714285714 0.5917285714285714 0 1.0714285714285714 0.4797 1.0714285714285714 1.0714285714285714ZM1.0714285714285714 8.571428571428571c0.5917285714285714 0 1.0714285714285714 -0.4797 1.0714285714285714 -1.0714285714285714s-0.4797 -1.0714285714285714 -1.0714285714285714 -1.0714285714285714c-0.5917339285714286 0 -1.0714285714285714 0.4797 -1.0714285714285714 1.0714285714285714s0.4796946428571428 1.0714285714285714 1.0714285714285714 1.0714285714285714Zm0 4.8219642857142855c0.5917285714285714 0 1.0714285714285714 -0.4796785714285714 1.0714285714285714 -1.0714285714285714s-0.4797 -1.0714285714285714 -1.0714285714285714 -1.0714285714285714c-0.5917339285714286 0 -1.0714285714285714 0.4796785714285714 -1.0714285714285714 1.0714285714285714s0.4796946428571428 1.0714285714285714 1.0714285714285714 1.0714285714285714ZM5.089285714285714 1.875c-0.4437964285714286 0 -0.8035714285714286 0.35977499999999996 -0.8035714285714286 0.8035714285714286s0.35977499999999996 0.8035714285714286 0.8035714285714286 0.8035714285714286h9.107142857142858c0.4437857142857143 0 0.8035714285714286 -0.35977499999999996 0.8035714285714286 -0.8035714285714286s-0.35978571428571426 -0.8035714285714286 -0.8035714285714286 -0.8035714285714286h-9.107142857142858ZM4.285714285714286 7.5c0 -0.4437964285714286 0.35977499999999996 -0.8035714285714286 0.8035714285714286 -0.8035714285714286h9.107142857142858c0.4437857142857143 0 0.8035714285714286 0.35977499999999996 0.8035714285714286 0.8035714285714286s-0.35978571428571426 0.8035714285714286 -0.8035714285714286 0.8035714285714286h-9.107142857142858C4.6454892857142855 8.303571428571429 4.285714285714286 7.943796428571428 4.285714285714286 7.5Zm0.8035714285714286 4.017857142857142c-0.4437964285714286 0 -0.8035714285714286 0.35978571428571426 -0.8035714285714286 0.8035714285714286s0.35977499999999996 0.8035714285714286 0.8035714285714286 0.8035714285714286h9.107142857142858c0.4437857142857143 0 0.8035714285714286 -0.35978571428571426 0.8035714285714286 -0.8035714285714286s-0.35978571428571426 -0.8035714285714286 -0.8035714285714286 -0.8035714285714286h-9.107142857142858Z" clip-rule="evenodd" stroke-width="1.0714285714285714"></path></g></svg>