<svg xmlns="http://www.w3.org/2000/svg" fill="none" viewBox="0 0 15 15" height="15" width="15"><g id="button-play--button-television-buttons-movies-play-tv-video-controls"><path id="Union" fill="#000000" fill-rule="evenodd" d="M2.867067857142857 0.02053392857142857c-0.3168857142857143 0 -0.6284678571428571 0.08077232142857142 -0.9053464285714286 0.23458714285714286 -0.28193571428571423 0.14372035714285714 -0.5199107142857143 0.36095999999999995 -0.6886821428571428 0.6288535714285713 -0.1712035714285714 0.27174321428571424 -0.26464714285714286 0.5852217857142857 -0.2701810714285714 0.906350357142857l-0.00008035714285714285 0V13.221H1.0026985714285714l0.00015964285714285714 0.009214285714285715c0.005533928571428572 0.32110714285714287 0.0989775 0.6346071428571429 0.2701810714285714 0.9063214285714285 0.16877142857142857 0.2679642857142857 0.40674642857142856 0.4851428571428571 0.6886821428571428 0.6289285714285714 0.2768785714285714 0.15374999999999997 0.5884607142857142 0.2345357142857143 0.9053464285714286 0.2345357142857143 0.32137499999999997 0 0.6372964285714285 -0.08303571428571428 0.9171 -0.2411785714285714 0.006160714285714286 -0.003428571428571429 0.01224642857142857 -0.007071428571428571 0.018257142857142857 -0.01082142857142857l9.246182142857144 -5.718696428571428c0.2803928571428571 -0.1413107142857143 0.5170714285714285 -0.35659285714285716 0.6844285714285715 -0.6228214285714286 0.17260714285714285 -0.2749178571428571 0.26432142857142854 -0.5929821428571428 0.26432142857142854 -0.9176464285714285 0 -0.32465357142857143 -0.0917142857142857 -0.6427285714285714 -0.26432142857142854 -0.9176357142857142 -0.1674642857142857 -0.26650714285714283 -0.4045714285714285 -0.48197142857142855 -0.6852857142857142 -0.6232714285714286L3.800903571428571 0.27156964285714286c-0.005517857142857143 -0.0033857142857142857 -0.011099999999999999 -0.006671785714285714 -0.016735714285714284 -0.00985607142857143 -0.27980357142857143 -0.15809871428571426 -0.595725 -0.24117964285714286 -0.9171 -0.24117964285714286Z" clip-rule="evenodd" stroke-width="1.0714285714285714"></path></g></svg>