<svg xmlns="http://www.w3.org/2000/svg" viewBox="0 0 15 15" height="15" width="15"><defs></defs><path d="M7.5 3.125a5.029375 5.029375 0 0 0 -4.330625 2.5H3.125a2.5 2.5 0 0 0 0 5h0.044375A5.029375 5.029375 0 0 0 7.5 13.125a0.625 0.625 0 0 0 0.625 -0.625V3.75a0.625 0.625 0 0 0 -0.625 -0.625zm1.875 0.625v1.25a3.125 3.125 0 0 1 0 6.25v1.25a4.375 4.375 0 0 0 0 -8.75z" fill="#ffffff" stroke-width="0.625"></path><path d="M11.25 8.125a1.875 1.875 0 0 0 -1.875 -1.875v1.25a0.625 0.625 0 0 1 0 1.25v1.25a1.875 1.875 0 0 0 1.875 -1.875z" fill="#ffffff" stroke-width="0.625"></path></svg>