<svg xmlns="http://www.w3.org/2000/svg" viewBox="0 0 15 15" height="15" width="15"><path d="M11.635625000000001 2.518125 1.913125 12.241249999999999 2.796875 13.125 5.0625 10.858749999999999A5.016249999999999 5.016249999999999 0 0 0 8.75 12.5a0.625 0.625 0 0 0 0.625 -0.625v-5.328125l3.1443749999999997 -3.1443749999999997zM3.163125 9.665000000000001 9.375 3.453125V3.125a0.625 0.625 0 0 0 -0.625 -0.625 5.029375 5.029375 0 0 0 -4.330625 2.5H4.375a2.5 2.5 0 0 0 -2.5 2.5 2.47375 2.47375 0 0 0 1.288125 2.165z" fill="#ffffff" stroke-width="0.625"></path></svg>